<svg id="Layer_1" data-name="Layer 1" xmlns="http://www.w3.org/2000/svg" viewBox="0 0 68.7 73.5"><defs><style>.cls-1{fill:#fff;}</style></defs><title>lo</title><path class="cls-1" d="M21.14,57c-1.86.3-7.29,1.81-8.87.14-2.25-2.38,4.84-8.27,6.12-9.32,6.65-5.48,16.15-7.73,24.48-9.23.39-.07-1.18,1.73-1.33,1.89-.65.69-2,2.49-3,2.67A92.2,92.2,0,0,0,28.48,45.6a62.63,62.63,0,0,0-7.85,2.83A28,28,0,0,0,17,50.32a3,3,0,0,0-.21.63c-.65,3.19,4.31,2.12,6.17,1.88a133.83,133.83,0,0,0,17-3.56c8.26-2.16,16.77-4.42,24.89-7.44l-8.1-15.46A158.1,158.1,0,0,0,15.93,41.81a11.94,11.94,0,0,1,1.34-1.89,13.86,13.86,0,0,1,3-2.67A155.41,155.41,0,0,1,55.09,23.31L43.27.73.63,43.1,22.37,72.65,67.22,46.47,66,44.13c-2.7,1.1-5.47,2.07-8.21,3C45.89,51.22,33.58,55,21.14,57Z"/></svg>